<svg id="Layer_1" data-name="Layer 1" xmlns="http://www.w3.org/2000/svg" width="1439.71" height="1453.84" viewBox="0 0 1439.71 1453.84">
  <g>
    <g>
      <circle cx="890.14" cy="551.6" r="136.71" fill="#516a72"/>
      <path d="M1342,368.82c5.54,10.21,11.26,20.33,16.6,30.65a719.34,719.34,0,0,1,65.86,185.25q6.67,32.12,10.31,64.73c2.45,22.14,2.72,44.37,4.33,66.49,1.65,22.68-.29,45.13-1.25,67.54-1.43,33.39-6.85,66.54-13.8,99.29a707.69,707.69,0,0,1-49.64,150,723.17,723.17,0,0,1-99.91,159.1c-15.28,18.45-31,36.51-48.13,53.16-48.57,47.23-102,88-161.74,120.46a734.32,734.32,0,0,1-123.32,53.28,676.58,676.58,0,0,1-107.23,25.69c-24.27,3.7-48.57,6.21-73,8.08-17.31,1.32-34.52,1.07-51.78,1.28-26.56.32-52.91-2.58-79.31-5.37-33.74-3.57-66.77-10.51-99.49-19a683.51,683.51,0,0,1-99.58-34.75,716.49,716.49,0,0,1-105.32-56.51c-1.95-1.26-3.72-2.78-5.58-4.19,1-7.3,8.63-6.84,12.65-10.65a31.37,31.37,0,0,1,9.18-5.6c36.62-21.14,60.09-52.82,73-92.49,13.76-42.19,12.13-85.08,4-128.06-1.05-10.11-4.89-19.59-6.74-29.51,1.37-8.79,8.78-13.1,14.45-18.35,27.07-25,54-50.22,80.06-76.3,3-3,5.54-6.8,10.38-7.21,2.73.64,4.59,2.6,6.4,4.5,16.18,17.09,34.78,31.63,50.93,48.77,8.6,9.13,8.84,8.88,17.88.24,2.14-2,4.06-4.4,7-5.49,8.18,1.56,11.8,8.65,16.94,13.92a41.65,41.65,0,0,1,2.5,6.42,20.24,20.24,0,0,1,.73,2.67,54.14,54.14,0,0,0,1.82,6.83,21.94,21.94,0,0,1,.94,4.54c7.91,32.6,9.68,64.91-4.31,96.51-13.48,27.76-32.08,51.85-52.79,74.58-18.79,20.61-38.38,40.52-55.65,62.49-3.71,4.72-7.34,9.53-9.45,15.19-2.38,6.4-.46,8.72,6.41,7.78a51.55,51.55,0,0,0,11.55-3.06c92.61-35.53,178.65-82.17,252.77-149.08,15.54-14,31.63-27.44,43.65-44.87,21.46-32.06,30.5-68.34,35.53-105.84,4.35-32.3,5.37-64.81,4.14-97.37a8.28,8.28,0,0,1,0-3.06c1.69-4.43,5.88-6.13,9.46-8.43,54-34.7,105.93-72.4,156.65-111.77a1287.81,1287.81,0,0,0,147.53-133.9c34.88-37,68.63-75.06,95.62-118.5a123,123,0,0,0,10.24-14.49c4.25-6.35,8.56-12.65,10.92-20,6.34-6.2,9.06-14.52,12.93-22.17a185.13,185.13,0,0,0,10.28-22c12.08-22.55,20.51-46.55,28.34-70.81C1337.11,375.44,1336.86,370.53,1342,368.82Z" fill="#254953"/>
      <path d="M123.43,1123.6c-10-11.67-17-25.33-24.81-38.42C68.36,1034.4,45.83,980.21,29,923.64A642.78,642.78,0,0,1,9.64,836.39c-4.25-28.2-7.5-56.44-8.29-85C1.09,741.83-.22,732.21,0,722.61c.73-28.16,2.32-56.23,5.32-84.29,3.57-33.39,10-66.12,18.17-98.6A697.82,697.82,0,0,1,60,433.44,717,717,0,0,1,122,319.87a728.68,728.68,0,0,1,61.77-79.32Q206,215.5,230.45,192.77a740.37,740.37,0,0,1,118.29-89.24A714.81,714.81,0,0,1,503.56,33.36C539.28,22,575.79,14,612.85,8,662.29,0,712-1.12,761.79.82c26.39,1,52.69,4.38,78.88,8.8a817.3,817.3,0,0,1,89,20.49,621.18,621.18,0,0,1,68.45,24.34C1023,64.8,1047.6,75.7,1070.69,89.66c-2.14,5.08-7.24,5.41-11.47,6.81A549.7,549.7,0,0,0,992,123.61c-8.3,3.67-16.3,8-24.41,12-7.47,3.58-14.36,8.22-21.65,12.13-6.64,4-12.75,8.87-19.64,12.5a150.47,150.47,0,0,0-14.68,9.86c-58.11,40.46-110.1,88-158.87,139C709.3,354.63,670.14,403.81,633,454.58c-28.28,38.68-55.53,78.05-81.14,118.55-1.77,2.81-3.69,5.58-7.17,6.61-15.6,1.47-31.25,0-46.83.79-43.93,2.3-87.5,6.77-128.71,23.84a141.84,141.84,0,0,0-46.27,30.48c-49.83,49.3-90.08,105.5-123.61,166.87-20.3,37.16-37.11,75.81-52,115.34-2.35,6.23-6.45,12.57-3.2,19.83,7.65,2.51,12.77-2.72,17.85-6.49,16.83-12.49,32.15-26.78,47.39-41.15,19.11-18,38.28-35.94,59.62-51.36,23.65-17.09,49.6-29,79-30.3,24-1.05,47.65,3.06,70.66,10.22a18.69,18.69,0,0,1,4.78,3.5c10.67,9.81,10.88,11.37,1.63,22.62-3.52,4.28-7.87,8.07-.44,12.54q25.53,25.24,50.8,50.76c3,3,6.72,5.62,7.22,10.4-.23,2.86-1.88,5-3.84,6.8-12.29,11.28-22.25,24.72-34.15,36.36-17.59,17.22-33.91,35.65-50.35,54-3.94,4.39-7.57,9.45-14,10.65-9.31-.81-18.28-3.5-27.48-4.9-27.35-3.79-54.85-4.58-82.22-1.34-54.05,6.39-97.27,31.43-128,76.94-4.15,6.76-8.22,13.56-11.85,20.63C129.12,1119.69,128.39,1124,123.43,1123.6Z" fill="#254953"/>
      <path d="M119.44,1134.64c6.39-8.91,9.39-19.81,16.62-28.23,6-2.78,8.38,2.43,11.18,5.57,16.51,18.51,33.37,36.74,51.06,54.07,11,10.74,18.68,21.25,13.56,37.2-3.06,12.55-7,24.88-9.72,37.53-3.43,15.78-3.4,15.91,12.73,12,12.26-3,24-7.56,36-11.35,3.79-1.2,7.47-2.82,11.53-2.93,9.05,1,15.38,5.94,21.54,12.61,16.81,18.19,33.67,36.35,50.87,54.17,3.85,4,9.87,7.55,6.65,14.92-6.75,5.27-14.24,9.39-21.54,13.81-16.35,6.27-32.4,13.41-49.59,17.28a5.21,5.21,0,0,1-5-.6c2.44-15.37,5-31.41,7.54-47.53-3.3-.14-4.75,1.82-6.55,3.23-17.5,13.81-36.52,25.2-56.28,35.41a56.65,56.65,0,0,1-6.45,2.43c-18.74-18.69-36.39-38.42-54.67-57.55-11.61-12.15-21.92-25.74-36.79-34.44,2.95-11.4,10-20.79,15.53-30.88,5.7-10.41,12.27-20.34,18.66-30.36,1.19-1.87,3.29-3.16,5-4.72.71-.37,1-.89.65-1.49a1.46,1.46,0,0,0-2.24-.75c-4.79.16-9.11,3.19-14.08,2.32-1.63,1.75-4.16.29-5.89,1.68-5.69,1.26-11.34,2.78-17.09,3.69-3.53.55-7.57,2.51-10.58-1.49,1.25-1.82,0-4.29,1.54-6a3.07,3.07,0,0,1,.27-1.91c1.57-1.75.12-4.36,1.72-6.1,1.48-10.74,6.06-20.52,9.48-30.65C116.38,1141.82,118,1138.26,119.44,1134.64Z" fill="#f4af59"/>
      <path d="M1342,368.82c-8.26,25.37-16.6,50.7-28,74.87-1.36,2.88-1.63,6.59-5.42,7.79-4.75.45-7-3.3-9.74-6q-35.33-35.12-70.45-70.42c-3-3-6.64-5.7-6.92-10.55,1.18-7,6.27-11.58,10.34-16.71q39.58-49.93,79.85-99.33c11.63-14.28,18-30.78,22.45-48.31,3.66-14.48,7.32-29,13-42.83,1.64-4,3.5-7.91,6.51-11.11,2.06-2.19,4.4-4.65,7.66-3.67,3.42,1,2,4.4,2.26,6.89.12,1.31,0,2.64.78,3.82,1.06,4.53.48,9.12.42,13.69a212.33,212.33,0,0,1-.06,42.48c1.28,22.25-2.18,44.22-4.75,66.16a577.6,577.6,0,0,1-13.18,74C1345.07,356,1343.54,362.41,1342,368.82Z" fill="#c1384b"/>
      <path d="M1348.29,91.48a4.71,4.71,0,0,1,2.53,3.8c-6.1,29.61-28.22,49-45.77,71.22-40.59,51.31-81.81,102.13-122.45,153.4a16.69,16.69,0,0,1-3.46,3.56c-2.59.86-4.58-.46-6.24-2.06-12.12-11.7-24.21-23.44-35.64-35.83a8.61,8.61,0,0,1-2.06-4.44c-.26-5.63,3.8-9.12,6.83-12.9q64.23-80.3,128.41-160.62c6.8-8.52,15.49-14.43,25.48-18.62C1313.44,88.73,1331.08,85.73,1348.29,91.48Z" fill="#d03f53"/>
      <path d="M1178.73,323.06c3.11-9.43,10.79-15.69,16.56-23.18,17.74-23.05,36.12-45.62,54.34-68.31q25.77-32.1,51.74-64c11.86-14.65,24-29.11,35.6-43.93,4.33-5.52,6.19-12.34,7.85-19.2.84-3.46.44-8.46,6-9.11,6.77,11.2,9.1,23.87,11.21,36.44,1.19,7.07,3,14.21,2.22,21.54-3.17-2.23-.4-6.57-3.59-9.36-5.82,1.85-8.08,7.07-10.39,12.09-4.3,9.34-6.83,19.28-9.71,29.11-4.45,15.2-7.47,30.76-14.34,45.3-6.35,13.45-16.42,23.94-25.33,35.36-15.43,19.78-31.33,39.19-47,58.76-8.68,10.81-17.29,21.7-26.11,32.4a43.44,43.44,0,0,0-5.2,8.42c-3.48.77-5.47-1.7-7.58-3.67-11.49-10.76-21.71-22.85-34.08-32.71C1179.15,327.58,1177.43,325.75,1178.73,323.06Z" fill="#ce3e52"/>
      <path d="M1348.29,91.48l-55.7-.09c-13.49,5.79-28.09,4.7-42.18,6.43a681.53,681.53,0,0,0-215.5,63.47,117.36,117.36,0,0,0-10.39,6c-3.3,1.69-5.82-.09-8-2.15-8.88-8.43-17.36-17.26-26.92-25-1.94-1.56-4-3.7-2.64-6.83,4.24-4.58,10.34-5.67,15.63-8.22,20.67-10,42.65-16.5,64.11-24.41,20.85-5.31,41.68-10.69,62.93-14.28,25.47-4.3,51.07-7.39,76.79-9.88,22.51-2.19,45-2.19,67.56-1.87,22.2.3,44.26,3,65.23,11.17C1342.56,87.13,1346.26,88,1348.29,91.48Z" fill="#e2586c"/>
      <path d="M112.18,1252.2c2.47-1.66,4.71-2,7,.51,10.94,11.94,23.89,22,33.54,35.17a49.94,49.94,0,0,0,6.84,7.19c14.69,13.42,27,29.12,41.06,43.09,1.7,1.69,3,3.51,3,6-16.09,10.23-33.95,16.68-51.65,23.2a500.62,500.62,0,0,1-72.71,20.73c-9.27,1.89-9.36,1.85-7.82-7.24a507.53,507.53,0,0,1,37.32-122.59C109.72,1256.18,111,1254.23,112.18,1252.2Z" fill="#f2a052"/>
      <path d="M1364.61,209.43l.06-42.48c2.21,1.71,1.53,4.18,1.54,6.38.08,9.54.06,19.07,0,28.61C1366.25,204.54,1366.6,207.25,1364.61,209.43Z" fill="#ce3e52"/>
      <path d="M129.79,1188c1.54-2,3.77-1.67,5.89-1.68C134.07,1188.12,131.94,1188.1,129.79,1188Z" fill="#f5bc5f"/>
      <g>
        <path d="M801.16,582.06c.67,28.31,1.51,61.28,1.19,94.26,0,3.06,1,4.85,3.78,6.27,14.29,7.2,29.2,13.17,42.94,21.47,2.35,1.43,4.82.93,7.32.45,17.78-3.38,34.87-9.35,52.32-14,14.72-3.88,29.35-8.11,44.08-12,3-.8,3.91-2.39,4.17-5.25a277,277,0,0,0,.61-35.76c-.69-17,1.2-33.89,1.36-50.84.33-35.8.39-71.61-.46-107.41-.08-3.39-1.43-5.15-4.44-6.27-5.45-2-10.78-4.36-16.25-6.3-3.22-1.15-4.38-2.65-3.49-6.27,2.41-9.75,4.84-19.54,6.42-29.44,1.45-9.07,7.11-13.75,14.74-17.24a14.78,14.78,0,0,1,8.59-1.12c12.6,1.7,25.24,3.14,37.88,4.52,6.46.71,8.65-1.1,9.17-7,.57-6.39-1.24-8.72-7.55-9.32-14.69-1.42-29.39-2.73-44.08-4.1a12.13,12.13,0,0,1-3.7-.55C953,395,950.6,393.6,947.33,395c-6.09,2.6-12,5.44-16.1,10.78-1.07,1.39-.52,4-.91,5.93-2.82,14.35-8,28.07-11.63,42.19-.5,1.93-1.9,3.29-3.84,2.15-8.11-4.8-16.32-1.62-24.3-.14C862,461.2,833.55,467,805,472.4c-4.33.82-5.63,2.89-5.5,7,.65,20.09,1.23,40.18,1.59,60.28C801.34,552.28,801.16,564.84,801.16,582.06Z" fill="#fffcfb"/>
        <path d="M853.48,601.77c0,32,0,64.06-.05,96.09,0,3.74,1.12,4.54,4.69,3.71,19.83-4.59,39.15-11,58.84-16.16,11-2.87,22-6.26,33-9.15,2.79-.73,3.86-1.94,4-4.73.45-7,1.23-14.09.88-21.16-1.29-26.39,1.2-52.72,1.17-79.09q0-43.57-.48-87.14c-.06-6.56-.24-6.27-6.27-5-19.61,4.09-39.23,8.1-58.89,11.84-11.73,2.23-22.81,6.76-34.49,9.08-2.69.54-2.75,2.57-2.74,4.71,0,13.81-.25,27.64.2,41.45C854,564.73,853.67,583.25,853.48,601.77Z" fill="#4cd2f2" opacity="0.61"/>
        <path d="M803.48,484.15c0,12.48-.1,24.86,0,37.24q.6,60.29,1.33,120.56c.12,11,.33,22,.28,33,0,3.09,1,4.8,3.81,6.17,12.67,6.21,25.86,11.39,37.9,18.86,3,1.88,4,1,4-2.51q-.15-94-.19-187.92c0-1.49.7-3.77-.8-4.3-2-.69-2.6,1.76-3.56,3a231.52,231.52,0,0,1-18.93,22.2c-3.47,3.59-4.7,3.22-6.27-1.59-4.83-14.78-10.63-29.18-16.78-43.44A9.51,9.51,0,0,0,803.48,484.15Z" fill="#4cd2f2" opacity="0.61"/>
        <path d="M907.94,467.54c-17.72,4-35.46,8-53.16,12.07-7.75,1.8-15.45,3.83-24.67,6.13,7.47,4.48,13.68,8.25,19.94,11.93a5.16,5.16,0,0,0,4.15.11c20.51-6.4,41.62-10.29,62.56-14.91,1.74-2.5-.66-3.72-1.81-5-1.94-2.23-3.2-4.09-1.92-7.36S913.38,466.79,907.94,467.54Z" fill="#37c8e0" opacity="0.61"/>
        <path d="M807.17,476c6.13,2.53,12.24,5.27,18.52,7.53,2.94,1,5.82-.88,8.66-1.64,25.16-6.76,50.72-11.84,76-18.11a18.18,18.18,0,0,0,4-1.22c1.81-.95,2.19-2.5.15-3.51-3.34-1.64-6.63-3.63-10.68-2.84q-47.36,9.13-94.71,18.23A2,2,0,0,0,807.17,476Z" fill="#4cd2f2" opacity="0.61"/>
        <path d="M932.92,414.25c-3.77,13-7.34,25.48-11,37.94-1.73,5.86-3.71,11.64-5.44,17.5-1,3.24-.48,5.86,3.5,6.81,3.76.89,7.07.89,8.29-3.56,1.79-6.5,3.42-13,5-19.6,1.87-7.94,2.92-16.14,5.55-23.81C941.13,422.59,938.14,418.64,932.92,414.25Z" fill="#ffb440"/>
        <path d="M962.6,399.58c-1.6.86-4.29-1.52-5.07,1.59s2.15,8.24,4.73,8.56c12.3,1.54,24.61,2.9,36.92,4.39,2,.23,2.77-.32,3.05-2.4,1.11-8.29,1.18-8.31-7.21-9.11C984.24,401.58,973.46,400.59,962.6,399.58Z" fill="#ffb440"/>
        <path d="M825.73,526.74c2.63-.72,3.74-2.51,5-3.94,5.63-6.13,10.72-12.7,15.78-19.3,1.82-2.38,1.57-3.82-.89-5.22-5-2.88-10-5.82-15.09-8.68-1.46-.83-3.26-1.51-3.21,1.23C827.55,502.69,826,514.49,825.73,526.74Z" fill="#4cd2f2" opacity="0.61"/>
        <path d="M804.48,478.57l1.48,3.68q8.13,20.16,16.25,40.3c.64-5.37,1.26-9.49,1.43-11.85.47-6.88.7-13.78,1-20.67.06-1.7.2-3.53-1.8-4.47A111.59,111.59,0,0,0,804.48,478.57Z" fill="#4cd2f2" opacity="0.61"/>
        <path d="M908.15,467.54c3.32.11,6.59.17,3,4.74-1.24,1.57-.27,2.86,1.15,3.88a12.14,12.14,0,0,1,4.69,6.71c9.25-1.7,18.5-3.38,27.74-5.11a30.38,30.38,0,0,0,4.06-1.18c.71-.24,1.68-.49,1.46-1.49A2.23,2.23,0,0,0,949,473.9q-6.75-2.76-13.55-5.4c-1.87-.73-2.95,0-3.38,2a27.26,27.26,0,0,1-1.29,4c-1.87,4.83-4.31,6-10.13,4.81s-7-2.64-6.8-8.17C914,465.43,914,465.43,908.15,467.54Z" fill="#37c8e0" opacity="0.61"/>
        <path d="M942.19,419.16c1.68-.44,1.92-1.64,1-2.83-2.31-3.15-4.76-6.18-7.22-9.22a1.51,1.51,0,0,0-2.09-.41,1.65,1.65,0,0,0-.78,2,29.84,29.84,0,0,0,8.13,10.16A2.5,2.5,0,0,0,942.19,419.16Z" fill="#ffb440"/>
        <path d="M956.18,407.71a24.4,24.4,0,0,0-3-9.09c-.88-1.48-2.42-2.36-4-1.34s-.08,2.19.38,3.26c1.19,2.73,2.38,5.45,3.56,8.18.38.86.7,2,1.79,1.9C956.41,410.43,956.08,409,956.18,407.71Z" fill="#ffb440"/>
        <path d="M942.63,400.89c2.29,3.79,4.46,7.72,7,11.38.69,1,1.81-.11,1.43-1.19-1.33-3.79-2.37-7.75-5-10.92a2.09,2.09,0,0,0-2.49-.77A1.38,1.38,0,0,0,942.63,400.89Z" fill="#ffb440"/>
        <path d="M946.56,414a28.08,28.08,0,0,0-5.33-10.12c-.76-1-1.94-1.91-3.18-.67-1.06,1.06-.08,2,.58,2.86,2.27,2.91,4.56,5.79,6.85,8.67Z" fill="#ffb440"/>
        <path d="M1008.92,408.62c-.33-1.47,0-3.89-2.08-3.45-2.31.48-2.26,3.07-2.24,5.09,0,1.33-.13,3.43,1.73,3.19C1008.89,413.1,1008.51,410.48,1008.92,408.62Z" fill="#ffb440"/>
        <path d="M806.82,504.81c.56-.09,1.24,2.34,4.38,11.89.23.71,2.54,7.67,5.94,15.64,2.44,5.72,3.59,7.6,5.64,8.14,2.74.73,5.65-1.32,6.88-2.19,1.41-1,2.05-1.83,5-5.95,3.22-4.48,5-6.93,7.51-10.64,1.9-2.78,2.86-4.18,2.9-4.25,1.11-1.83,1.46-2.69,1.79-2.63.89.16.41,6.54.32,7.82-.6,8-.41,16.1-1.26,24.1-1,9.49-1.08,17.9-1.25,34.73-.14,14.34.46,13.84.63,32.86.19,21.5-.67,20.12-.32,38.18.42,21.23.62,31.85,1.16,33.82.49,1.81,2.25,8,.41,9-1,.58-2.53-.55-4.69-1.88-3.66-2.24-7.76-3.67-11.58-5.63-10.38-5.32-15.57-8-16.28-8.13-1.76-.4-4.29-.79-5.63-2.82-1.1-1.67-.8-3.52-.62-5.63.31-3.75-.41-7.51-.32-11.27.23-9.53.52-16.92.63-21,.23-8.61-.21-7.39-.31-24.72-.08-12.08.14-11.81,0-20-.13-6.82-.31-8.63-.94-23.47-.62-14.44-.93-21.66-.94-25.34,0-13.72.83-13.57.62-26.91C806.38,510.52,806,504.93,806.82,504.81Z" fill="#49adb8"/>
        <path d="M807.8,480.86c-.68.61.64,3.46,2.9,8.75,0,0,1.85,4.31,3.35,8,2.12,5.18,4.18,10.87,4.49,11.73,2.11,5.81,2.73,8,3.35,7.89s.79-2.41,1.06-6.66c.34-5.41,0-5.67.28-10.34.18-2.72.17-5.46.35-8.19.09-1.53.22-3.15-.69-4.48-.44-.65-.93-1-2.62-1.78-2.58-1.27-4.61-2.12-5.9-2.65-5.57-2.31-1.78-.59-4.51-1.71C808.41,480.84,808.05,480.64,807.8,480.86Z" fill="#49adb8"/>
        <path d="M846.64,501.31c.28,1.55-1.47,2.47-4.69,6.12-2,2.31-1.51,2.14-4.43,5.61-1.66,2-2.83,3.22-4.81,5.31-5.18,5.5-5.88,5.67-6.2,5.49s-.24-.68.16-4.94c.26-2.78.36-4,.4-4.46.14-1.7.14-2.12.33-5.2.13-2.16.23-3.66.42-6.29.49-7.09.48-6,.5-6.77.08-3.62-.22-5.56.6-5.88.27-.11.45,0,2.28,1s1.33.64,2.78,1.43c1.61.88,1.65,1,3.25,1.86s1.87,1,3.92,2.11a24.17,24.17,0,0,1,3,1.77C845.53,499.59,846.45,500.31,846.64,501.31Z" fill="#49adb8"/>
        <ellipse cx="893.47" cy="534.83" rx="14.42" ry="16.76" fill="#fff3e4"/>
        <ellipse cx="930.46" cy="526.61" rx="14.42" ry="16.76" fill="#fff3e4"/>
        <circle cx="895.33" cy="529.01" r="5.2" fill="#161513"/>
        <circle cx="932.3" cy="520.84" r="4.39" fill="#161513"/>
        <circle cx="891.01" cy="527.74" r="2.48" fill="#fff3e4"/>
        <circle cx="927.92" cy="519.46" r="2.34" fill="#fff3e4"/>
        <path d="M890.15,508.31a3.17,3.17,0,0,1,1.1,1.18,3.3,3.3,0,0,1,.25,2.35,23.66,23.66,0,0,0-5.49,1.58,23.06,23.06,0,0,0-7.43,5,21.71,21.71,0,0,0-4.79,7.54,14.34,14.34,0,0,1,1.4-7.6c2-4,5.49-5.88,8.34-7.43A27.85,27.85,0,0,1,890.15,508.31Z" fill="#fff3e4"/>
        <path d="M933,501.87a2.34,2.34,0,0,0-.61,1,2.38,2.38,0,0,0,.13,1.67,16.9,16.9,0,0,1,9.84,2.85,15.36,15.36,0,0,1,4.31,4.61,10.12,10.12,0,0,0-2-5.09c-1.91-2.51-4.58-3.37-6.76-4.08A19.69,19.69,0,0,0,933,501.87Z" fill="#fff3e4"/>
        <path d="M924.48,561c-.91.68-1.49,2-2.61,4.63-1.5,3.52-2.24,5.32-1.82,6.83.47,1.69,1.75,2.72,3.19,3.88a9.5,9.5,0,0,0,4.33,2.3c3.49.6,6.43-1.91,8-3.26,1.86-1.58,4.42-3.76,4.52-7.25a8.3,8.3,0,0,0-2.51-5.92c-1.77-1.61-3.75-1.79-6.61-2.05S926.21,559.71,924.48,561Z" fill="#fff3e4"/>
      </g>
      <path d="M103.66,1184.17c0,2.15.5,4.41-1.54,6C101.82,1188,101.82,1185.84,103.66,1184.17Z" fill="#f5bc5f"/>
      <path d="M149.76,1184c.87-1,2-1.76,3-.43s-.12,2.18-1.38,2.67C151.46,1185,150.63,1184.5,149.76,1184Z" fill="#f5bc5f"/>
      <path d="M105.65,1176.16c.06,2.21.48,4.53-1.72,6.1C103.67,1180,103.88,1177.86,105.65,1176.16Z" fill="#f5bc5f"/>
      <path d="M854.94,902.69c3.08,2.21,1.7,5.47,1.73,8.23.14,15,.73,30-.08,44.94-2.27,42.2-7.14,84-23.86,123.43-4.67,11-9.86,21.82-17.76,31q-94.61,19-189.26,37.78c-3.86.76-7.93,1.59-11.17-1.89,2.72-9.82,6.84-19.15,8.72-29.29,3.49-18.77,2-37.29-1.22-55.85-.84-4.85-1.57-9.72-2.34-14.57,8.36-.6,16.1-3.32,23.86-6.32q35.79-13.82,72.13-26.16c33.93-11.47,60.94-33.3,86.55-57.24a472.61,472.61,0,0,0,41.33-44.49C846.81,908.37,851.12,905.85,854.94,902.69Z" fill="#bd384a"/>
      <path d="M614.54,1146.21c10.1.88,19.59-2.64,29.24-4.48,42.68-8.16,85.26-16.88,127.86-25.45,11.3-2.27,22.6-4.53,33.81-7.17a13,13,0,0,1,9.52,1.21c-3.06,6.41-8.1,11.28-13,16.16a727.25,727.25,0,0,1-166.62,124,948.7,948.7,0,0,1-115,52.76c-5.88,2.25-11.88,4.41-18.33,4.23-5.91-.16-8-2.88-6-8.33a53.86,53.86,0,0,1,7.57-14c14.08-18.56,30-35.48,45.78-52.59,20.71-22.48,41.52-44.91,56.88-71.64C609.05,1156.05,611.78,1151.12,614.54,1146.21Z" fill="#d64055"/>
      <path d="M681.41,760.58c3,1.2,3.83,3.43,2.93,6.37-1.64,5.32-3.37,10.62-5.06,15.93-3.95,13.31-12.82,23.73-20.84,34.55-9.84,13.26-21,25.49-31.47,38.23-21.33,25.86-45.5,49-69.12,72.68q-10.53,10.56-21.05,21.12c-6.76,5.37-11.16,13.44-19.46,17.06-6.82,6.22-13.88,12.21-20.44,18.7-26.56,26.33-53.78,52-81.29,77.29a23.37,23.37,0,0,0-2.42,3.12c-5.8,10.18-15.43,16.76-23.73,24.47-10.81,10.06-22.23,19.5-33,29.6-18.59,15-36.55,30.87-56.18,44.62-4.91,3.44-10.08,6.45-15,9.85-4.72,2-9.46,4.37-14-.34,2.89-9.1,9.87-15.5,15.52-22.65,33.63-42.53,69.19-83.38,106.24-123,24.52-26.24,49.71-51.85,74.12-78.16,32.16-34.66,65.93-67.7,99.62-100.79,25.83-25.37,52.35-50.18,81.57-71.77C658.36,770,668.42,762.35,681.41,760.58Z" fill="#c53b4e"/>
      <path d="M987,133.32l35.74,34.3c4.44.45,6.74,4,9.49,6.77q48.39,48.23,96.67,96.54a47.2,47.2,0,0,1,7.91,10.14c2.66,5.1,7.32,8.42,11.25,12.33,10.1,10,20.45,19.79,30.7,29.66,3,6.64,10.15,9,14.88,14,9.3,9.76,18.33,19.86,28.93,28.3,18.22,19.86,37.75,38.42,56.79,57.47,9.63,9.64,19.44,19.12,29.17,28.67-.86,8.42-5.5,15.1-10.08,21.8-4.79.56-7.1-3.21-9.75-5.95-35.87-37-73.67-72.12-110.67-108-28.9-28-56.58-57.27-86.21-84.45-33.12-30.38-63.75-63.22-96.1-94.34-9.23-8.46-19.09-16.25-27.43-25.65-2.46-2.77-6.63-4.76-5.33-9.67A88.49,88.49,0,0,1,987,133.32Z" fill="#ecf2f8"/>
      <path d="M341.49,1320.16c-.49-5-3.38-8.53-6.81-11.8-17.1-16.26-31.56-35-49-51a8.75,8.75,0,0,1-2.06-2.16c-4.21-8.37-11.54-12.49-20.11-15-.34-4.48,3.46-5.37,6.27-6.61A223.34,223.34,0,0,0,313,1208.8c2.42-1.79,5.27-4,8.17-2.32,3.34,1.9,2.73,5.75,2.46,9.07-1.47,17.86-1.48,17.86,15.38,11.86a17.43,17.43,0,0,0,1.84-.77c28.26-10.86,51.21-27.85,64.72-55.82a39.92,39.92,0,0,0,3.81-11.29,139,139,0,0,0,7.38-50.54c-.13-4.43-1.85-10.14,4.48-12.57,5.56,26.42,8,53.17,5.81,80-3.44,42.74-17.11,81.57-46.6,113.78-9.93,10.84-21.37,19.88-33.47,28.12C345.28,1319.49,343.71,1320.8,341.49,1320.16Z" fill="#f5bd5f"/>
      <path d="M921.29,169.56c6.54-3.84,12.33-8.9,19.36-12,7.59,2.05,11.17,9,16.48,13.76,6.63,6,12.59,12.69,19.17,18.75,15.77,12.35,29,27.38,43.12,41.45,27.1,27,54.75,53.36,82,80.19,36.68,36.15,72.69,73,109.63,108.87,22.18,21.53,44.42,43,66.31,64.81,3,3,6.92,5.4,7.47,10.22.11,8.41-5.51,13.79-10.37,19.57-3.09.7-5-1.41-6.92-3.14-2.49-2.21-4.8-4.62-7.12-7-43.11-44.45-88.36-86.72-132.63-130-25.7-25.11-50.49-51.2-77-75.39-33.51-30.51-64.33-63.69-96.9-95.1-9.11-8.43-19-16.08-27.19-25.42C924.18,176.42,920,174.45,921.29,169.56Z" fill="#edf2f8"/>
      <path d="M1284.8,495.65c-36.44-35.88-72.76-71.9-109.43-107.55-8.09-7.86-16.22-15.69-24.26-23.61-23.43-23.07-46.59-46.44-70.26-69.26q-49.15-47.37-97.46-95.6c-2.79-2.79-5.77-5.4-8.66-8.09,3.16-8.37,13.18-13.9,22.36-12.34,1.5,1.29,3.08,2.51,4.49,3.89Q1041,222,1080.44,261c33.47,32.86,66.83,65.84,100.69,98.28,15.15,14.5,29.77,29.52,44.83,44.09q36.21,35,72.46,70C1295.44,481.69,1292.68,490.23,1284.8,495.65Z" fill="#c43b4e"/>
      <path d="M655.13,886.73c19.53,20.37,38.89,40.9,60.22,59.44,8.26,7.18,14.95,16.05,23.86,22.56.19,3.88-3,4.91-5.55,6.2-36.62,18.8-73,38-111.32,53.32a18.22,18.22,0,0,1-3.85,1,3.75,3.75,0,0,1-2.84-.75c-6.4-3.44-9.71-10.48-16.14-13.89-7.4-3.89-13.73-8.74-15.7-17.51,1.62-6.17,6.77-6.61,11.77-7.14,26.2-2.81,28.47-4.73,36-30.35,5.91-20.08,10.52-40.5,16.23-60.64,1.17-4.13,1.67-8.51,4.47-12A2,2,0,0,1,655.13,886.73Z" fill="#a8a8a8"/>
      <path d="M955.13,203.18c1.26,1.06,2.6,2,3.76,3.19q39.39,38.87,78.77,77.74c34.14,33.52,68.17,67.16,102.7,100.27,14.87,14.27,29.28,29,44.06,43.34l90,87.5a30.17,30.17,0,0,1-9.84,14.53c-12.5-11.47-24.23-23.71-36.51-35.4-25-23.86-49.31-48.54-73.92-72.86-20.83-20.58-41.46-41.35-62.57-61.63-32.38-31.11-64.06-62.93-96.31-94.17-18.39-17.81-36.33-36.08-54.75-53.87C942.48,204,947.49,201.38,955.13,203.18Z" fill="#c43b4e"/>
      <path d="M617.16,1028.43c17.2-7.86,34.5-15.52,51.59-23.64,23.83-11.33,47.46-23.09,70.46-36.06,20-9.56,38.89-21.11,57.9-32.42,19.32-11.5,38.36-23.46,57.53-35.22a9.62,9.62,0,0,0,.31,1.6c-2.49,5.91-7.81,9.68-11.83,14.2-16.07,18.07-31.75,36.57-50.85,51.82-8.25,6.58-16,13.91-24.32,20.44-15.62,12.18-33.36,20.47-51.78,27.24-26.77,9.83-53.81,18.95-80.31,29.53-5.16,2.06-10.64,4.47-16.16.58l-.51-3.9c-1.64-1.73-.21-4.32-1.71-6.09a2.23,2.23,0,0,1-.32-1.89A5.6,5.6,0,0,1,617.16,1028.43Z" fill="#a32939"/>
      <path d="M421.19,1096.42c-2.75,2.76-1.78,6.28-1.63,9.46.91,19.36-1.32,38.23-8.18,56.45-3.72,6.54-9.23,8.33-14.64,3.11-14.25-13.77-27.2-28.82-41-43.08a4.15,4.15,0,0,1-.69-4.64l58.1-52.08A117,117,0,0,1,421.19,1096.42Z" fill="#fbe4a4"/>
      <path d="M585.29,998.49c3.71,6.28,10.45,9.9,14.22,16.14-4.37,4.54-8.78,9-13.11,13.63-2.32,2.46-4.51,2.44-6.74,0-.22-.24-.49-.45-.72-.69-20-20.91-42-39.71-61.6-61a108.52,108.52,0,0,1,18-18c7.19-.5,10.2,5.61,13.73,9.77,9.6,11.31,20.09,21.72,30.56,32.16C582,992.86,583.47,995.78,585.29,998.49Z" fill="#7b7f82"/>
      <path d="M617.48,1036.51c2.17,1.59,1.82,3.87,1.71,6.09A6.93,6.93,0,0,1,617.48,1036.51Z" fill="#bd384a"/>
      <path d="M617.16,1028.43v6.19c-1.74-1.73-1.79-3.87-1.51-6.1A4.81,4.81,0,0,0,617.16,1028.43Z" fill="#bd384a"/>
      <path d="M539.57,590.92c-11.14,18.71-22.39,37.35-33.38,56.15-11.5,19.65-23.16,39.22-33,59.78a30.66,30.66,0,0,1-3.65,11.27c-17.44,34.8-35.4,69.35-49.87,105.55-1,2.44-1.89,5-4.44,6.42-11-2.05-22-3.9-32.92-6.18-42.2-8.78-80,1.17-114.63,26-19.73,14.16-37.56,30.47-55.28,47-17,15.81-33.7,31.9-52.18,46a59.51,59.51,0,0,1-13.56,8.24c-3,1.22-6.23,3-8.86-.8.66-15.36,8.53-27.87,16.06-40.51a21.62,21.62,0,0,0,2-2.25c18.25-31.24,48.13-51,74.11-74.51,23.39-21.18,47.42-41.64,71.2-62.38q45.06-39.29,90-78.72c23.51-20.55,47.09-41,70.44-61.76,15.91-14.13,31.5-28.62,51.34-37.35C521.71,591.18,530.45,588.43,539.57,590.92Z" fill="#d03f53"/>
      <path d="M415.22,830.09c2.09-9.82,6.94-18.61,10.82-27.73,13.16-30.89,28.78-60.62,43.77-90.64a40.68,40.68,0,0,1,3.37-4.87c1.52,3.06,4.19,5.11,6.53,7.43Q514.6,749,549.56,783.63c10.84,10.69,22,21,33,31.6,2,1.87,3.85,3.66,6.72,3.85.28,1.89-.85,3.12-2.07,4.25-21.38,19.95-40.81,41.87-62.74,61.3-9.12,8.08-15.9,18.76-26.9,24.9-5.59,1.27-8.37-3-11.6-6.1-14-13.47-27.11-27.9-42.18-40.33-8.79-7.24-8.43-7.63-16.6.08-2.36,2.23-4.33,5.08-7.92,5.57-1.15-.67-2.26-1.42-3.44-2-4.5-2.21-4.76-4.75-1.27-8.41,4.33-4.54,8.24-9.48,12.3-14.22C423.91,838.25,417.87,835.57,415.22,830.09Z" fill="#b5b5b5"/>
      <path d="M209.64,1202.32c.19-3-.34-6.21.71-8.82,2.72-6.76,0-11.69-4.58-16-18.15-17-33.37-36.72-51.53-53.66a51.41,51.41,0,0,1-7.1-8.22c-2.78-4-5.62-8.31-11.08-9.25,26.38-41.08,64.23-65.38,111.43-75.82,13.31-2.94,26.81-4.18,40.49-4.75a336.49,336.49,0,0,1,61.36,3.25c-1.87,5.1-6.41,3.64-10.06,3.92-20.27,1.52-40.07,4.75-58.66,13.69-17.31,8.32-29.62,22-41,36.79-10,12.88-14.89,28-19.11,43.38-1.38,5.05.37,6.94,5.39,6.12,3.6-.6,7.17-1.39,10.77-2,2.94-.48,6.37-1.32,8.35,1.38,2.13,2.9-.35,5.71-1.89,8.12-10.39,16.27-18.66,33.59-26.28,51.27C215.16,1195.61,215.93,1201.5,209.64,1202.32Z" fill="#f5bc5f"/>
      <path d="M539.57,590.92c-6.4-.91-12.49.91-18.52,2.46a34.65,34.65,0,0,1-9.71,1.53c-12.65,6.58-26.91,7-40.38,10.33-40.87,10.17-80.54,23.19-115.82,47A371.43,371.43,0,0,0,316,683.09c-22.11,19.67-42.72,40.81-60.89,64.27-21.21,27.38-39.46,56.67-56.87,86.57-14.71,25.27-27.43,51.64-42.6,76.65a226.64,226.64,0,0,0-17.89,39.76c-3-3.16-1.69-6.67-.95-10.22,2.83-13.39,8.39-25.86,13.55-38.38,10.62-25.78,21.92-51.27,34.8-76,28-53.83,61.06-104.19,101.42-149.62,7.93-8.93,16.35-17.44,24.28-26.37,22.05-24.85,50.78-38.1,81.94-46.66,26.59-7.29,53.78-11.14,81.37-13,22.26-1.5,44.46-.84,66.69-.86A1.63,1.63,0,0,1,539.57,590.92Z" fill="#e2576b"/>
      <path d="M237.62,1082.43c17.91-28.32,44.59-43.29,76.64-49.56,9-1.75,18.31-1.65,27.49-2.37,2.58-.2,5.34.58,7.59-1.41a200.79,200.79,0,0,1,27.9,5.67c1,5.06-2.76,8.09-5.45,11-26.66,29.39-53.17,58.89-77.82,90a7.12,7.12,0,0,1-2.43,1.69c-5.38,1.79-8.75-1.59-12.05-4.84q-18.28-18-36.34-36.31C239.33,1092.5,236.2,1088.36,237.62,1082.43Z" fill="#fbe19b"/>
      <path d="M291,1136.28c24.77-31.62,51.07-61.92,78.36-91.37,2.91-3.14,5.29-6.76,7.92-10.15q19.81-20.87,39.64-41.73c8.2-8.67,16.24-17.48,24.45-26.14q18.12-19.14,36.37-38.15c4.12-9,11.64-14.67,19.42-20.12Q540.51,866,584,823.48c1.64-1.6,3.54-2.94,5.31-4.4,21.53-18.59,42.92-37.35,67.45-52.07A60.44,60.44,0,0,1,676,759.34c2.12-.43,3.91-.44,5.43,1.24-8.31,5.43-17.88,8.48-25.93,14.57-14.81,11.19-29.08,23-43.06,35.19-44.88,39.2-86.24,82-127.85,124.53-16.48,16.83-32.73,34-49.09,50.94-8.73,9.07-17.09,18.48-25.67,27.65-18.33,19.61-36.7,39.2-54.33,59.49-10.64,12.25-21.24,24.56-32,36.72-10.52,11.88-19.76,24.89-30.18,36.87-7.36,8.48-12.35,18.94-21.57,25.84-2.42-2.16-2-4.86-.92-7.29C275.79,1154.3,280.85,1143.51,291,1136.28Z" fill="#d15165"/>
      <path d="M497.12,908.62c-5.7,7.46-12.74,13.61-19.42,20.12C466.17,915.37,453,903.63,440.76,891q-10.72-11.13-21.51-22.2c2.94-4.93,7.79-8.11,11.38-12.43,3.43-4.13,6-3.28,9.77,0,16.74,14.63,32.18,30.59,48,46.17C490.92,905,492.93,908.43,497.12,908.62Z" fill="#949697"/>
      <path d="M997.09,179.2a44.24,44.24,0,0,0-22.36,12.34c-11.85-10.83-23-22.34-34.08-33.94,7-4.9,14.18-9.45,22.28-12.36,9.69,9.82,18.86,20.15,29.65,28.85C994.33,175.49,995.6,177.48,997.09,179.2Z" fill="#da5568"/>
      <path d="M955.13,203.18c-6,1-10.44,4.57-14.6,8.64L907,179.31c4-4.33,9.12-7.11,14.31-9.75,9.58,9.67,18.64,19.87,29.28,28.46C952.33,199.44,953.62,201.44,955.13,203.18Z" fill="#db5569"/>
      <path d="M291,1136.28c-5.28,8.76-12.14,16.51-16.58,25.81-1.55,3.25-3.78,6.35-2.66,10.29,1.32,3.32,4,2.52,6.43,1.95a68.61,68.61,0,0,0,7.14-2.49c4.16,1,6.43,4.51,9.34,7.15,9.28,8.41,17.77,17.46,28.14,24.94,7.91,5.69,13.49,15.46,18.76,24.41-6.78,4.38-14.65,5.33-22.88,7.63-1.21-9.82,4.08-18.71,2.4-27.9-2.58-.56-4.28.5-5.81,1.76-13.32,11-28.43,19-44.2,25.81-2.69,1.16-5.62,2.07-7.51,4.59-18.49,5.19-36.22,12.85-55.1,16.82-4,.84-7.67,1.72-11.93.11,2.69-18.82,7.89-36.83,13.14-54.84,4.47-10.25,8.71-20.61,13.47-30.74a243.27,243.27,0,0,1,21.94-38.43c-6.69-1.34-11.82,1.4-17.12,2.23-3,.46-5.84,1.14-8.83.83-2.46-.26-3.66-1.92-2.95-4.14,5.46-17.27,9.19-35.31,21.47-49.64,1.56,6,5.22,10.44,9.58,14.69,11.64,11.32,23,22.9,34.5,34.41C284.29,1134.12,286.7,1137,291,1136.28Z" fill="#f9d87e"/>
      <path d="M1136.78,281.07a5.16,5.16,0,0,1-.8-.59Q1080.22,225.24,1024.5,170a21.6,21.6,0,0,1-1.79-2.34c.19-4.23,3.78-5,6.63-6.53a499.16,499.16,0,0,1,47.05-21.28c17.5-7,35.12-13.82,53.28-18.94,26.93-7.6,53.84-15.15,81.53-19.86,16.24-2.75,32.54-5.29,48.84-7.11,10.74-1.2,21.57-3.58,32.55-2.51-1,1.3-1.74,3.27-3,3.81-12.76,5.18-19.11,16.8-27.16,26.69-12.09,14.85-24.06,29.81-36.05,44.75q-21.7,27-43.38,54.11c-12.16,15.21-24.36,30.4-36.4,45.71C1142.93,271.06,1138.34,275.08,1136.78,281.07Z" fill="#dd4358"/>
      <path d="M1067,573.15c-3,31.64-15.89,59.14-35.25,84-16,20.53-36,36.14-59.12,47.7a170.09,170.09,0,0,1-92.66,17.61C834.2,718.29,795.39,699,764.26,665c-4.67-5.11-8.76-10.76-13.12-16.17-7.93-11-16.31-21.79-15-36.7.34-3.8.33-7.73,4-9.56,7.31-3.69,14.11-8.85,22.81-9.07,4.83,1.63,5.42,6.4,7.33,10.12,26.13,50.57,68.35,74.89,124.52,76.69,5.41.18,10.5-1.46,15.77-2a123.17,123.17,0,0,0,51.36-18.6c29.94-17.29,48.32-43.53,58.63-75.95,1.9-6,3.13-12.19,4.6-18.3.75-2.32,1.23-4.72,2.06-7a7.65,7.65,0,0,1,1.66-2.4c9.42-3.11,15-11.5,23-16.78,8.84-5.88,8.27-6.73,14.92,1.61a19.82,19.82,0,0,0,2.09,2.11q0,11-.08,22C1066.66,567.35,1068.79,570.68,1067,573.15Z" fill="#212a30"/>
      <path d="M763.17,594.87c-7.82,1.66-14.14,6.85-21.71,9.2-2,.63-3.05,2.72-3.07,5.54-.11,12.47,2.48,24,10.5,33.85a8.34,8.34,0,0,1,2.25,5.33c-9.38-7.52-14-18.37-19-28.65a137.72,137.72,0,0,1-13.41-43.43c-2.09-16.37-4.46-32.4-2-49.2,2.09-14.15,4.38-28.09,9.2-41.47,7.24-20.12,18.16-38.1,31.73-54.75C771.75,414,789,400.82,808,390c17.07-9.68,35.73-15.51,55.18-18.85,15.51-2.66,31.15-2.84,46.62-1.65,18.51,1.44,36.42,6.55,53.57,13.9,25.18,10.79,46.09,27.37,64.29,47.62,1.58,1.77,3.13,3.46,3.18,6-6.71.17-11.4-4.63-16.63-7.54-5.62-3.13-11.69-4.49-17.54-6.31-6.12-1.9-10.15,3.27-13.5,7.69-2.16,2.87-3.42,6.46-7.44,7.41-3.62.25-6.35-1.76-9.08-3.64-52.73-36.2-124.58-29.15-169,15.23C763,484.44,751,527.17,760.94,575.62,762.24,581.91,766.29,588,763.17,594.87Z" fill="#c3c3c3"/>
      <path d="M976.87,437.16c2.72-9.28,10.41-14,18.16-19.63,2.83,4.45,7.8,4.42,12.23,6.05,6.82,2.52,13.79,5.77,19.67,10.54,1.27,1,2.63,1.95,4,2.91,8.11,6.77,12.59,16.21,17.3,25.16,13.27,25.18,22.23,51.67,20.65,80.74-3.38.29-5.31-.84-6.61-4.41-1.47-4-4.23-3.89-6.12.08a11.4,11.4,0,0,1-8.34,6.39,5.83,5.83,0,0,0-4.5,3.51c-2.61,6.57-8.29,7.84-14.38,8.42-5.33-9.38-2.55-20-4.24-29.94-4.78-28.29-16.13-52.86-36-73.65C984.09,448.54,976.94,445.33,976.87,437.16Z" fill="#bababa"/>
      <path d="M655.13,886.73c-.6-.09-1.21-.2-1.81-.34-11.52-6.28-19.05-16.86-27.87-26a4.93,4.93,0,0,1-.6-5.59c19.62-22.85,38.95-45.91,54.43-71.89,1.29,10.21-3.23,19.33-5.61,28.8-5.81,23.09-12.1,46.06-18.11,69.1C655.07,882.67,655.26,884.74,655.13,886.73Z" fill="#ccdcea"/>
      <path d="M1067,573.15c.09-2.85-1.09-6,1.8-8.22C1068.65,567.78,1069.72,570.89,1067,573.15Z" fill="#bababa"/>
      <path d="M624.85,854.77c.61,4,3.84,6.09,6.33,8.69q11,11.5,22.14,22.93c-4.26,21-10.67,41.43-15.9,62.17-1.77,7-3.55,14.13-6.27,20.82-8.45,20.79-8.24,20-31.91,23.09-2.29.3-4.69-.18-6.93.25-3.26.62-6.59,1.55-7,5.77-11.69-10.36-22.92-21.14-32.87-33.25a94.29,94.29,0,0,0-17.07-16.68c1.78-3.68,5.11-6,7.87-8.8,18.82-19,37.85-37.9,56.51-57.1C608.44,873.7,616.5,864.09,624.85,854.77Z" fill="#97989a"/>
      <path d="M341.53,1228.34c-6.12-5.38-13-10.07-15.69-18.45-.56-1.77-2-4-3.57-4.57-13-4.43-19.64-16.24-29.21-24.6-2.95-2.56-6.09-5.12-7.77-8.88q27-18.52,52.12-39.61c5.83-4.91,11.79-9.68,17.68-14.51,1.17,2.86,3.47,4.82,5.62,6.86,12,11.35,22.81,23.86,34.05,36,7.26,7.8,7.71,7.55,16.62,1.8a92.82,92.82,0,0,1-29.81,43.24C369.45,1215.46,356.9,1224.3,341.53,1228.34Z" fill="#fadd8f"/>
      <path d="M155.68,910.58c4.36-13,11.29-24.75,17.58-36.78,8.44-16.12,17.38-32,26.69-47.63,12-20.18,24.2-40.21,37.94-59.36a552.52,552.52,0,0,1,41.87-51.57c18.88-20.59,39.85-38.58,61.72-55.82C370.93,636.2,404.57,622,439.92,611c17.39-5.42,35.1-9.34,52.91-12.89,6.14-1.23,12.34-2.15,18.51-3.21-1.64,3.81-5.45,4.71-8.68,6.24-9.13,4.31-16.65,10.67-24.1,17.37C465,630.69,451,642.31,437.23,654.24c-5.76,5-11.2,10.31-17.08,15.21-13.75,11.44-26.63,23.92-40.11,35.69-18.22,15.89-36.76,31.4-55,47.27-13.25,11.53-26.12,23.5-39.34,35.07s-26.67,22.81-39.94,34.29c-6.26,5.43-12.24,11.16-18.53,16.57-15.56,13.4-30.9,27.06-46.44,40.48-6.71,5.8-11.6,13.56-16.71,20.92C161.48,903.49,160,908.12,155.68,910.58Z" fill="#dd4358"/>
      <path d="M963,661.05c1.95-4.63,6.7-6.27,10.23-9,25.62-19.9,41.19-45.76,47.91-77.37a103.51,103.51,0,0,0,1.81-19.64c-.09-.48-.17-1-.26-1.44-1-6.73.66-13.64-1.46-20.29a51,51,0,0,1-1.25-5.74,164.81,164.81,0,0,0-7.06-25.44c-5.65-17.23-16.7-31-28.31-44.46C959,433.9,929,420.08,893.86,419.76c-65.77-.6-119.83,46.42-128.4,111.63-5.39,41,6.16,76.79,35.33,106.55,3.2,3.26,7.31,5.93,8.24,10.93C824.77,664,844,672,864.93,676.8c11.78,2.73,23.69,1.75,35.58,2.07,3.5.09,7.37-1.3,10.39,1.8-26,5.21-50.53.05-74.48-10A130.85,130.85,0,0,1,793.81,642c-12.32-12.5-22.4-27-28.61-43.81a6.1,6.1,0,0,0-2-3.27c-4.89-17.9-9.2-35.8-8.18-54.68,1.56-29,10.82-55,28.19-78.16a125.87,125.87,0,0,1,50.76-40.37c35.88-15.73,72.24-17.43,109-2.71,9.6,3.84,18.79,8.21,27,14.56,2.07,1.61,4,3.62,6.92,3.64,3.8,5.54,9.13,9.62,13.72,14.41,20.63,21.54,32.67,47,36.56,76.64,1.27,9.62,1.4,19.14,1.73,28.72a11.49,11.49,0,0,0-.11,1.85c-1.69,1.71-.25,4.33-1.76,6.09-2.76,22.52-11.47,42.73-24.43,61.09a131.47,131.47,0,0,1-30,30.19C969.59,658.33,966.67,660.4,963,661.05Z" fill="#212a30"/>
      <path d="M1042.5,588.84c-5.34-.55-8.1-3.5-7.62-8.14s4.38-8.06,8.55-7.7c4.51.39,7.85,4.88,7.35,9.88C1050.32,587.42,1047.61,589.37,1042.5,588.84Z" fill="#bababa"/>
      <path d="M1027,564.86c-.12-2.23-.47-4.54,1.77-6.09C1028.79,561,1029.25,563.31,1027,564.86Z" fill="#bababa"/>
      <path d="M743,589a10.94,10.94,0,0,1-1.95-.83c.37-1.77,1.83-1.12,2.91-1.08.49,0,1,.62,1.43,1Z" fill="#b1b1b1"/>
      <path d="M751,581.94l-.81,1.52c-.28-.5-.78-1-.79-1.49s.47-1,.73-1.51Z" fill="#b1b1b1"/>
      <path d="M1023,554.94q.07-11,.14-22C1025.88,540.32,1026.09,547.64,1023,554.94Z" fill="#212a30"/>
      <path d="M1261.25,518c-30.54-28.17-59.45-58-89.09-87.09-28.69-28.16-57.13-56.57-85.87-84.68-46.81-45.76-94-91.14-140.16-137.56-8.81-8.59-17.38-17.44-26.23-26-2.47-2.4-4.53-6-9-4.81-3.06,2-6.18,3.87-9.17,6-39.24,27.43-75.05,59-109.56,92Q754.36,312,719.78,351.33q-35.09,40.08-67.31,82.39C624.67,470.06,598,507.29,573,545.62c-9.25,14.13-18.79,28.08-28.2,42.11-1.22.76-2.51,1.4-3.66,2.28-20.23,30.64-38.71,62.34-56.05,94.67-3.53,6.57-9.27,12.28-9.4,20.45a12.09,12.09,0,0,0,3.95,6.76c34.82,34.55,68.54,70.23,105,103.06,2.51,2.25,5.12,4.29,8.82,3.74,3.42-.77,5.72-3.27,8.26-5.37,19.13-15.89,37.9-32.28,59.39-45,6.76-4,13.57-8.39,22.14-7,4.89,7.61-2.18,14.11-2,21.29-3.4,20.3-10.27,39.74-15,59.71-3.3,13.82-8.32,27.26-9.25,41.6.67,4.22,3.55,7,6.32,9.85q35.35,36.18,72.52,70.48c2.18,2,4.37,4.08,7.52,4.48,3.53.26,6.36-1.5,9.28-3.11,32.85-18.05,64.85-37.53,96.71-57.24,3.63-2.24,7.61-4.24,9.18-8.71,23.16-13.7,45.18-29.13,67.23-44.5,13.86-9.67,27.69-19.4,41.33-29.4q42.09-30.87,82.63-63.77c21.37-17.36,42.64-34.88,62.54-53.82,32.5-30.93,64.17-62.7,93.58-96.7q27-31.27,51.53-64.46c4.26-5.78,9.34-11.33,11.1-18.7C1268.25,523.32,1264.32,520.81,1261.25,518ZM890.66,686.6a137,137,0,1,1,137-137A137,137,0,0,1,890.66,686.6Z" fill="#e3ebf4"/>
    </g>
    <polygon points="710.7 108.81 702.03 98.11 689.18 103.05 696.68 91.5 688.01 80.8 701.31 84.36 708.8 72.81 709.53 86.56 722.83 90.12 709.98 95.06 710.7 108.81" fill="#f9d87e"/>
    <polygon points="606.22 245.13 592.33 227.99 571.74 235.9 583.75 217.4 569.86 200.25 591.17 205.96 603.18 187.45 604.34 209.48 625.65 215.19 605.06 223.1 606.22 245.13" fill="#f9d87e"/>
    <polygon points="1329.91 711.57 1316.02 694.43 1295.42 702.34 1307.43 683.84 1293.55 666.69 1314.86 672.4 1326.87 653.89 1328.03 675.92 1349.34 681.62 1328.75 689.54 1329.91 711.57" fill="#f9d87e"/>
    <polygon points="1158.84 840.56 1144.95 823.42 1124.35 831.33 1136.36 812.83 1122.47 795.68 1143.79 801.39 1155.8 782.88 1156.96 804.91 1178.27 810.62 1157.68 818.53 1158.84 840.56" fill="#f9d87e"/>
    <circle cx="891.01" cy="549.59" r="131.37" fill="#bddee5" opacity="0.28"/>
    <ellipse cx="854.95" cy="480.77" rx="46.96" ry="39.62" transform="translate(-115.88 340.86) rotate(-21.15)" fill="#fff" opacity="0.23"/>
  </g>
</svg>
